<?xml version="1.0" encoding="utf-8"?>
<!-- Generator: Adobe Illustrator 17.0.0, SVG Export Plug-In . SVG Version: 6.00 Build 0)  -->
<!DOCTYPE svg PUBLIC "-//W3C//DTD SVG 1.1//EN" "http://www.w3.org/Graphics/SVG/1.1/DTD/svg11.dtd">
<svg version="1.1" id="Layer_1" xmlns="http://www.w3.org/2000/svg" xmlns:xlink="http://www.w3.org/1999/xlink" x="0px" y="0px"
	 width="256px" height="256px" viewBox="0 0 256 256" enable-background="new 0 0 256 256" xml:space="preserve">
<rect id="background" x="-0.046" fill="#ED6D62" width="256" height="256"/>
<g>
	
		<line fill="none" stroke="#FFFFFF" stroke-width="7.5704" stroke-miterlimit="10" x1="100.361" y1="166.352" x2="156.954" y2="166.352"/>
	
		<line fill="none" stroke="#FFFFFF" stroke-width="7.5704" stroke-miterlimit="10" x1="179.665" y1="196.633" x2="148.16" y2="196.633"/>
	
		<line fill="none" stroke="#FFFFFF" stroke-width="7.5704" stroke-linecap="round" stroke-miterlimit="10" x1="130.643" y1="75.508" x2="145.783" y2="75.508"/>
	
		<line fill="none" stroke="#FFFFFF" stroke-width="7.5704" stroke-linecap="round" stroke-miterlimit="10" x1="138.213" y1="90.648" x2="179.85" y2="90.648"/>
	
		<line fill="none" stroke="#FFFFFF" stroke-width="7.5704" stroke-linecap="round" stroke-miterlimit="10" x1="126.857" y1="105.789" x2="176.065" y2="105.789"/>
	
		<line fill="none" stroke="#FFFFFF" stroke-width="7.5704" stroke-linecap="round" stroke-miterlimit="10" x1="126.857" y1="120.93" x2="179.85" y2="120.93"/>
	
		<line fill="none" stroke="#FFFFFF" stroke-width="7.5704" stroke-linecap="round" stroke-miterlimit="10" x1="126.857" y1="136.07" x2="172.28" y2="136.07"/>
	
		<line fill="none" stroke="#FFFFFF" stroke-width="7.5704" stroke-linecap="round" stroke-miterlimit="10" x1="123.072" y1="151.211" x2="176.065" y2="151.211"/>
	
		<line fill="none" stroke="#FFFFFF" stroke-width="7.5704" stroke-miterlimit="10" x1="115.694" y1="45.226" x2="210.131" y2="45.226"/>
	<path fill="none" stroke="#FFFFFF" stroke-width="7.5704" stroke-miterlimit="10" d="M115.694,45.226
		c-7.57,0-7.763,11.356-7.763,11.356s0.85,67.749-7.57,109.77c0,0-18.926,0-37.852,0s3.785,45.422-22.711,45.422h94.445
		c26.496,0,3.785-45.422,22.711-45.422s-3.785,30.281,22.711,30.281s22.711-140.052,22.711-140.052s0.185-11.356,7.755-11.356
		c7.57,0,7.57,22.711,7.57,22.711h-15.141"/>
</g>
</svg>
